<?xml version="1.0" encoding="UTF-8" standalone="no"?>
<svg
   xmlns:dc="http://purl.org/dc/elements/1.1/"
   xmlns:cc="http://creativecommons.org/ns#"
   xmlns:rdf="http://www.w3.org/1999/02/22-rdf-syntax-ns#"
   xmlns:svg="http://www.w3.org/2000/svg"
   xmlns="http://www.w3.org/2000/svg"
   xmlns:sodipodi="http://sodipodi.sourceforge.net/DTD/sodipodi-0.dtd"
   xmlns:inkscape="http://www.inkscape.org/namespaces/inkscape"
   inkscape:version="1.0beta2 (2b71d25, 2019-12-03)"
   sodipodi:docname="Panther-white.svg"
   id="svg124"
   version="1.1"
   viewBox="0 0 300 140"
   height="140px"
   width="300px">
  <metadata
     id="metadata130">
    <rdf:RDF>
      <cc:Work
         rdf:about="">
        <dc:format>image/svg+xml</dc:format>
        <dc:type
           rdf:resource="http://purl.org/dc/dcmitype/StillImage" />
        <dc:title>Group</dc:title>
      </cc:Work>
    </rdf:RDF>
  </metadata>
  <defs
     id="defs128" />
  <sodipodi:namedview
     inkscape:current-layer="svg124"
     inkscape:window-maximized="0"
     inkscape:window-y="232"
     inkscape:window-x="2115"
     inkscape:cy="121.54247"
     inkscape:cx="160.22803"
     inkscape:zoom="2.1717862"
     showgrid="false"
     id="namedview126"
     inkscape:window-height="480"
     inkscape:window-width="670"
     inkscape:pageshadow="2"
     inkscape:pageopacity="0"
     guidetolerance="10"
     gridtolerance="10"
     objecttolerance="10"
     borderopacity="1"
     inkscape:document-rotation="0"
     bordercolor="#666666"
     pagecolor="#ffffff" />
  <!-- Generator: Sketch 59.1 (86144) - https://sketch.com -->
  <title
     id="title112">Group</title>
  <desc
     id="desc114">Created with Sketch.</desc>
  <g
     fill-rule="evenodd"
     fill="none"
     stroke-width="1"
     stroke="none"
     id="Page-1">
    <g
       fill="#000000"
       transform="translate(-50.000000, -130.000000)"
       id="Artboard-3">
      <g
         transform="translate(50.000000, 130.000000)"
         id="Group">
        <polygon
           style="fill:#ffffff"
           points="99.9795323 73.7248898 23.2625493 124.421712 11.6819321 124.850383 0 112.029228 4.33505603 88.0626305 34.3519419 81.1746695 39.7154992 86.796103 30.0844292 89.0401299 9.7385253 94.690791 6.52714527 110.548365 15.0959423 116.208768 30.0905695 111.675249 99.7093588 61.829274 123.272783 55.0289956 161.830835 48.2319647 199.317403 33.8877291 208.960753 26.3372767 218.594893 26.3372767 226.095277 21.138019 231.452694 19.9591742 236.807041 12.0027836 243.232871 10.8564138 244.301284 3.75736488 247.515735 6.85223846 258.230568 6.85223846 260.373535 3.60473208 270.010746 3.60473208 277.508059 0 280.722509 0.357225702 283.933889 0.357225702 286.076856 3.60473208 293.5711 3.60473208 295.720207 5.80978891 300 9.57689631 298.925446 13.3472512 297.860103 13.3472512 295.720207 20.124797 294.645653 26.3372767 293.5711 26.3372767 292.505757 23.0897704 285.002303 23.0897704 279.672517 26.704245 279.672517 42.5683136 286.35317 40.6457898 278.576472 52.3173278 271.079159 52.3173278 267.391905 50.4954767 267.391905 42.5683136 254.506473 32.3711436 249.406949 22.1739736 252.744205 33.5045233 266.734892 43.6984458 265.697181 47.1018325 260.355114 48.2319647 261.435808 69.7596845 256.087602 77.6900951 261.134933 95.8176757 270.462058 108.27511 270.462058 115.075389 283.893977 127.539318 293.552679 126.402691 297.847823 132.072837 295.710996 140 277.504989 138.86662 230.381211 92.4175365 197.177506 94.6875435 181.111395 87.8840176 158.619455 85.6172582 133.984547 92.4175365 114.703986 109.40849 80.4318682 117.335653 75.0744512 126.402691 81.5033516 132.072837 79.3603848 137.736488 65.437241 140 61.1513074 136.599861 66.5056542 110.54187 81.5033516 103.748086 97.5694622 87.8840176 110.421123 68.6230573 121.132886 60.6926467 108.278156 67.4929251 105.066776 72.0231965"
           id="Shape" />
        <polygon
           style="fill:#ffffff"
           points="143.023256 93.4621877 148.660131 100.424043 143.22829 120.026648 158.703674 136.5 172.674419 136.5 172.674419 128.398458 169.261381 126.122342 164.532966 128.398458 157.22427 118.170587 167.315129 103.406765 165.208003 89.7728602 158.653204 87.5"
           id="polygon117" />
        <polygon
           style="fill:#ffffff"
           points="202.325581 96.8774479 220.272327 94.5 214.607784 111.196605 216.49777 124.576958 222.165021 125.675967 225 130.770498 224.057715 134.75 208.940533 134.75 204.218275 118.184764"
           id="polygon119" />
      </g>
    </g>
  </g>
</svg>
